<svg t="1642663905360" class="icon" viewBox="0 0 1024 1024" version="1.1" xmlns="http://www.w3.org/2000/svg" p-id="3434" width="200" height="200"><path d="M511 511.68m-448.47 0a448.47 448.47 0 1 0 896.94 0 448.47 448.47 0 1 0-896.94 0Z" fill="#C1CBF7" p-id="3435"></path><path d="M785.52 481.32s-3.25-81.77-11.86-140.08-32.87-156.91-32.87-156.91l-93.75 162.65 138.48 134.34z" fill="#3A3938" p-id="3436"></path><path d="M765.31 462.15s-1.85-46.56-6.75-79.76-18.72-89.34-18.72-89.34l-53.38 92.61 78.85 76.49z" fill="#695968" p-id="3437"></path><path d="M236.87 481.32s3.25-81.77 11.86-140.08 32.87-156.91 32.87-156.91l93.75 162.65-138.48 134.34z" fill="#3A3938" p-id="3438"></path><path d="M257.08 462.15s1.85-46.56 6.75-79.76 18.72-89.34 18.72-89.34l53.38 92.61-78.85 76.49z" fill="#695968" p-id="3439"></path><path d="M221.71 559.17a289.24 243.85 0 1 0 578.48 0 289.24 243.85 0 1 0-578.48 0Z" fill="#3A3938" p-id="3440"></path><path d="M378.82 560.62m-51.57 0a51.57 51.57 0 1 0 103.14 0 51.57 51.57 0 1 0-103.14 0Z" fill="#FFFFFF" p-id="3441"></path><path d="M378.82 560.62m-35.75 0a35.75 35.75 0 1 0 71.5 0 35.75 35.75 0 1 0-71.5 0Z" fill="#DEA614" p-id="3442"></path><path d="M391.11 546.88m-12.29 0a12.29 12.29 0 1 0 24.58 0 12.29 12.29 0 1 0-24.58 0Z" fill="#FFFFFF" p-id="3443"></path><path d="M644.64 560.62m-51.57 0a51.57 51.57 0 1 0 103.14 0 51.57 51.57 0 1 0-103.14 0Z" fill="#FFFFFF" p-id="3444"></path><path d="M644.64 560.62m-35.75 0a35.75 35.75 0 1 0 71.5 0 35.75 35.75 0 1 0-71.5 0Z" fill="#DEA614" p-id="3445"></path><path d="M659.03 546.88m-12.29 0a12.29 12.29 0 1 0 24.58 0 12.29 12.29 0 1 0-24.58 0Z" fill="#FFFFFF" p-id="3446"></path><path d="M483.21 633.07c0.01-8.26 55.69-6.98 55.86-0.01 0.32 13.04-18.55 31.5-28.31 31.54-9.71 0.05-27.56-17.25-27.55-31.53z" fill="#1E100F" p-id="3447"></path><path d="M480.48 724.94l-2.23-2.01 31-34.4v-26.16h3v27.31z" fill="#1E100F" p-id="3448"></path><path d="M541.42 724.95l-32.18-35.27 0.4-27.34 3 0.05-0.38 26.15 31.37 34.38z" fill="#1E100F" p-id="3449"></path></svg>