<svg t="1642663947505" class="icon" viewBox="0 0 1024 1024" version="1.1" xmlns="http://www.w3.org/2000/svg" p-id="3586" width="200" height="200"><path d="M510.33 512m-448.47 0a448.47 448.47 0 1 0 896.94 0 448.47 448.47 0 1 0-896.94 0Z" fill="#EDD398" p-id="3587"></path><path d="M236.2 481.64s3.25-81.77 11.86-140.08c8.61-58.3 32.87-156.91 32.87-156.91l93.75 162.65L236.2 481.64z" fill="#997248" p-id="3588"></path><path d="M256.42 462.48s1.85-46.56 6.75-79.76 18.72-89.34 18.72-89.34l53.38 92.61-78.85 76.49z" fill="#D39B75" p-id="3589"></path><path d="M784.85 481.64s-3.25-81.77-11.86-140.08c-8.61-58.3-32.87-156.91-32.87-156.91L646.38 347.3l138.47 134.34z" fill="#997248" p-id="3590"></path><path d="M764.64 462.48s-1.85-46.56-6.75-79.76-18.72-89.34-18.72-89.34l-53.38 92.61 78.85 76.49z" fill="#D39B75" p-id="3591"></path><path d="M221.25 559.5a289.24 243.85 0 1 0 578.48 0 289.24 243.85 0 1 0-578.48 0Z" fill="#997248" p-id="3592"></path><path d="M498.39 315.87c-2.29 19.29-3.66 43.91-3.66 70.72 0 61.92 7.31 112.11 16.34 112.11s16.34-50.19 16.34-112.11c0-26.79-1.37-51.38-3.65-70.66-4.5-0.18-9.02-0.28-13.57-0.28-3.96 0-7.89 0.09-11.8 0.22zM429.73 350.2c0 61.92 7.31 112.11 16.34 112.11s16.34-50.19 16.34-112.11c0-10.8-0.22-21.25-0.64-31.13a333.845 333.845 0 0 0-31.62 6.05c-0.28 8.06-0.42 16.46-0.42 25.08zM559.72 351.34c0 61.92 7.31 112.11 16.34 112.11s16.34-50.19 16.34-112.11c0-8.87-0.15-17.51-0.44-25.79a332.253 332.253 0 0 0-31.56-6.23c-0.44 10.15-0.68 20.89-0.68 32.02z" fill="#443426" p-id="3593"></path><path d="M585.82 630.15c-26.05-19.04-30.35-44.72-43.84-64.96-12.34-18.5-27.26-18.14-29.72-17.94-2.46-0.2-17.38-0.56-29.72 17.94-13.5 20.24-21.72 43.44-47.76 62.48-26.05 19.04-115.66 78.11-108.2 120.02v0.02c49.99 34.76 114.06 55.63 183.91 55.63 71.75 0 137.38-22.03 187.93-58.5 6.56-39.4-86.55-95.65-112.6-114.69z" fill="#CE9C6A" p-id="3594"></path><path d="M378.16 560.95m-51.57 0a51.57 51.57 0 1 0 103.14 0 51.57 51.57 0 1 0-103.14 0Z" fill="#FFFFFF" p-id="3595"></path><path d="M378.16 560.95m-35.75 0a35.75 35.75 0 1 0 71.5 0 35.75 35.75 0 1 0-71.5 0Z" fill="#DEA614" p-id="3596"></path><path d="M390.45 547.21m-12.29 0a12.29 12.29 0 1 0 24.58 0 12.29 12.29 0 1 0-24.58 0Z" fill="#FFFFFF" p-id="3597"></path><path d="M643.97 560.95m-51.57 0a51.57 51.57 0 1 0 103.14 0 51.57 51.57 0 1 0-103.14 0Z" fill="#FFFFFF" p-id="3598"></path><path d="M643.97 560.95m-35.75 0a35.75 35.75 0 1 0 71.5 0 35.75 35.75 0 1 0-71.5 0Z" fill="#DEA614" p-id="3599"></path><path d="M658.36 547.21m-12.29 0a12.29 12.29 0 1 0 24.58 0 12.29 12.29 0 1 0-24.58 0Z" fill="#FFFFFF" p-id="3600"></path><path d="M482.54 633.4c0.01-8.26 55.69-6.98 55.86-0.01 0.32 13.04-18.55 31.5-28.31 31.54-9.71 0.04-27.56-17.25-27.55-31.53z" fill="#371E19" p-id="3601"></path><path d="M479.81 725.26l-2.23-2.01 31.01-34.39v-26.17h3v27.32z" fill="#371E19" p-id="3602"></path><path d="M540.75 725.27L508.58 690l0.39-27.33 3 0.04-0.37 26.15 31.37 34.39z" fill="#371E19" p-id="3603"></path><path d="M302.57 516.89c-12.86 2.92-26.13 15.47-40.57 29.75-11.28 11.16-27.2 30.11-38.2 47.16 3.87 23.15 11.57 45.27 22.59 65.85-0.76-22.07 1.18-56.13 16.99-80.29 7.35-11.24 17.02-23.95 39.19-44.04 18.81-17.02 5.15-19.61 0-18.43z" fill="#443426" p-id="3604"></path><path d="M224.83 599.46c0.51-18.12 3.41-40.32 12.91-57.08 5.58-9.85 12.91-21 29.74-38.61 14.27-14.94 3.91-17.2 0-16.17-9.76 2.56-19.83 13.57-30.78 26.09-4.07 4.65-8.94 10.85-13.82 17.69-1.26 9.23-1.93 18.62-1.93 28.13a206.55 206.55 0 0 0 3.88 39.95z" fill="#443426" p-id="3605"></path><path d="M796.7 592.95c-10.98-16.83-26.55-35.34-37.64-46.31-14.44-14.28-27.71-26.83-40.57-29.75-5.15-1.17-18.81 1.41 0 18.45 22.17 20.08 31.84 32.8 39.19 44.04 15.47 23.65 17.66 56.76 17.03 78.86 10.75-20.45 18.26-42.36 21.99-65.29z" fill="#443426" p-id="3606"></path><path d="M797.33 530.17c-4.59-6.36-9.13-12.11-12.96-16.49-10.96-12.52-21.03-23.52-30.78-26.09-3.91-1.03-14.27 1.24 0 16.17 16.83 17.61 24.16 28.75 29.74 38.61 8.97 15.84 12.05 36.52 12.8 54.04 2.17-12.04 3.3-24.37 3.3-36.92-0.01-9.92-0.73-19.7-2.1-29.32z" fill="#443426" p-id="3607"></path></svg>